<svg xmlns="http://www.w3.org/2000/svg" class="icon icon-tabler icon-tabler-brand-mastodon" width="44" height="44" viewBox="0 0 24 24" stroke-width="1.5" stroke="currentColor" fill="none" stroke-linecap="round" stroke-linejoin="round">
  <path d="m 19, 13.5c-0.25, 1 -2, 2.5 -4, 2.5 -1, 0 -2, 0.25 -3, 0.25 -1.75, 0 -3, -0.5 -3, -0.5 0, 0.25 0, 0.25 0, 0.5 0.25, 1.75 1.75, 2 3.25, 2 1.5, 0 2.75, -0.25 2.75, -0.25 l 0, 1.25 c 0, 0 -1, 0.5 -2.75, 0.5 -1, 0 -2.25, 0 -3.5, -0.5 -3, -0.75 -3.5, -4.25 -3.75, -7.5 0, -1 0, -2 -0, -2.75 0, -3.5 2.25, -4.5 2.25, -4.5 1, -0.5 3,-0.75 5,-0.75 h 0 c 2, 0 4, 0.25 5, 0.75 0, 0 2.25, 1 2.25, 4.5 0, 0 0, 2.5 -0.25, 4.25" />
  <circle cx="10" cy="10" r="1.5" />
</svg>
